<?xml version="1.0" encoding="UTF-8" standalone="no"?>
<svg
   xmlns:dc="http://purl.org/dc/elements/1.1/"
   xmlns:cc="http://creativecommons.org/ns#"
   xmlns:rdf="http://www.w3.org/1999/02/22-rdf-syntax-ns#"
   xmlns:svg="http://www.w3.org/2000/svg"
   xmlns="http://www.w3.org/2000/svg"
   xmlns:sodipodi="http://sodipodi.sourceforge.net/DTD/sodipodi-0.dtd"
   xmlns:inkscape="http://www.inkscape.org/namespaces/inkscape"
   id="svg8"
   version="1.1"
   viewBox="0 0 210 297"
   height="297mm"
   width="210mm"
   sodipodi:docname="logo.svg"
   inkscape:version="0.92.2 (5c3e80d, 2017-08-06)">
  <sodipodi:namedview
     pagecolor="#ffffff"
     bordercolor="#666666"
     borderopacity="1"
     objecttolerance="10"
     gridtolerance="10"
     guidetolerance="10"
     inkscape:pageopacity="0"
     inkscape:pageshadow="2"
     inkscape:window-width="716"
     inkscape:window-height="480"
     id="namedview23"
     showgrid="false"
     units="mm"
     inkscape:zoom="0.2102413"
     inkscape:cx="396.85039"
     inkscape:cy="561.25984"
     inkscape:window-x="0"
     inkscape:window-y="0"
     inkscape:window-maximized="0"
     inkscape:current-layer="svg8" />
  <defs
     id="defs2" />
  <metadata
     id="metadata5">
    <rdf:RDF>
      <cc:Work
         rdf:about="">
        <dc:format>image/svg+xml</dc:format>
        <dc:type
           rdf:resource="http://purl.org/dc/dcmitype/StillImage" />
        <dc:title></dc:title>
      </cc:Work>
    </rdf:RDF>
  </metadata>
  <g
     id="layer1">
    <flowRoot
       transform="scale(0.26458333)"
       style="font-style:normal;font-weight:normal;font-size:40px;line-height:1.25;font-family:sans-serif;letter-spacing:0px;word-spacing:0px;fill:#000000;fill-opacity:1;stroke:none"
       id="flowRoot4690"
       xml:space="preserve"><flowRegion
         id="flowRegion4692"><rect
           y="563.90533"
           x="380.82751"
           height="117.1777"
           width="25.253813"
           id="rect4694" /></flowRegion><flowPara
         id="flowPara4696">jdj</flowPara></flowRoot>    <text
       id="text4700"
       y="150.26903"
       x="103.96784"
       style="font-style:normal;font-weight:normal;font-size:10.58333302px;line-height:1.25;font-family:sans-serif;letter-spacing:0px;word-spacing:0px;fill:#000000;fill-opacity:1;stroke:none;stroke-width:0.26458332"
       xml:space="preserve"><tspan
         style="stroke-width:0.26458332"
         y="159.92453"
         x="103.96784"
         id="tspan4698" /></text>
    <text
       id="text4704"
       y="141.44913"
       x="99.424271"
       style="font-style:normal;font-variant:normal;font-weight:normal;font-stretch:normal;font-size:16.93333244px;line-height:1.25;font-family:'Viner Hand ITC';-inkscape-font-specification:'Viner Hand ITC';letter-spacing:0px;word-spacing:0px;fill:#000000;fill-opacity:1;stroke:none;stroke-width:0.26458332"
       xml:space="preserve"><tspan
         style="font-style:normal;font-variant:normal;font-weight:normal;font-stretch:normal;font-family:'Viner Hand ITC';-inkscape-font-specification:'Viner Hand ITC';stroke-width:0.26458332"
         y="154.89139"
         x="99.424271"
         id="tspan4702" /></text>
    <text
       id="text4708"
       y="136.63828"
       x="103.70058"
       style="font-style:normal;font-variant:normal;font-weight:normal;font-stretch:normal;font-size:16.93333244px;line-height:1.25;font-family:'Vladimir Script';-inkscape-font-specification:'Vladimir Script';letter-spacing:0px;word-spacing:0px;fill:#000000;fill-opacity:1;stroke:none;stroke-width:0.26458332"
       xml:space="preserve"><tspan
         style="stroke-width:0.26458332"
         y="150.08054"
         x="103.70058"
         id="tspan4706" /></text>
    <g
       id="g832">
      <g
         transform="translate(1.0690781)"
         id="g839">
        <text
           transform="scale(0.62259886,1.6061706)"
           id="text5284"
           y="82.027382"
           x="49.401257"
           style="font-style:normal;font-variant:normal;font-weight:normal;font-stretch:normal;font-size:67.24687195px;line-height:1.25;font-family:Magneto;-inkscape-font-specification:Magneto;letter-spacing:0px;word-spacing:0px;fill:#000000;fill-opacity:1;stroke:none;stroke-width:1.05073237"
           xml:space="preserve"><tspan
             style="stroke-width:1.05073237"
             y="82.027382"
             x="49.401257"
             id="tspan5282">JAOB</tspan></text>
        <path
           d="m 0.8938913,153.05828 c 1.1860189,-2.29005 2.1902776,-4.59791 2.8190393,-7.12466 0.7969158,-3.6362 1.683287,-7.24499 2.4315961,-10.893 0.8740946,-3.4549 1.7396699,-6.90573 2.466616,-10.39972 0.8476832,-3.67297 1.4289063,-7.40105 2.0311623,-11.12394 0.629129,-3.50942 1.49563,-6.96132 2.011147,-10.49245 0.3532,-3.577014 0.591371,-7.166884 0.857112,-10.753114 0.217121,-3.17299 0.300157,-6.35282 0.343214,-9.53285 0.03433,-3.53334 0.07594,-7.06652 0.07525,-10.60009 -0.06412,-3.35878 0.05441,-6.72287 -0.128901,-10.07779 -0.154629,-2.92723 -0.951488,-5.75171 -1.486827,-8.61636 -0.422467,-2.215978 -0.519268,-4.473173 -0.813624,-6.70788 -0.245168,-1.416701 -0.534329,-2.825032 -0.893374,-4.214444 0,0 9.249928,-5.287795 9.249928,-5.287795 v 0 c 0.375302,1.432089 0.626183,2.891886 0.951138,4.337621 0.317874,2.232183 0.391652,4.481074 0.713837,6.713631 0.483383,2.923518 1.353329,5.772827 1.528177,8.744947 0.207099,3.39129 0.0061,6.79657 0.05219,10.19307 0.0026,3.51992 0.06048,7.03967 0.03364,10.55955 -0.04226,3.21684 -0.123735,6.43481 -0.401294,9.6404 -0.261321,3.60129 -0.476408,7.20599 -0.788349,10.80146 -0.478925,3.558574 -1.329308,7.024074 -2.042991,10.535984 -0.604825,3.72409 -1.161256,7.46007 -1.963848,11.14467 -0.722467,3.50409 -1.54877,6.97658 -2.502365,10.4183 -0.763384,3.63798 -1.609508,7.249 -2.383505,10.88427 -0.488467,2.52869 -1.27588,4.88382 -2.477332,7.14191 0,0 -9.6816434,4.70828 -9.6816434,4.70828 z"
           id="path5311"
           style="fill:#ff0000;fill-opacity:1;stroke:#ff0000;stroke-width:0.36509666"
           inkscape:connector-curvature="0" />
        <path
           d="m 11.623943,165.66173 c 2.183185,-0.77403 4.265779,-1.86517 6.373563,-2.85574 1.329164,-0.79018 2.780804,-1.33032 4.124488,-2.08791 0.463298,-0.26121 1.808249,-1.12828 1.350798,-0.85591 -6.931575,4.12716 -10.167699,6.24451 -6.167811,3.65325 5.88553,-3.35438 11.451636,-7.63106 17.749269,-10.16889 3.531987,-1.38785 7.147208,-2.43181 10.806197,-3.36058 2.531558,-0.7517 5.354862,-0.75066 7.638024,-2.23026 1.276691,-0.93549 2.828519,-1.16657 4.341268,-1.31797 1.485731,-0.0258 2.955979,-0.31518 4.387418,-0.7279 1.658321,-0.78207 3.431009,-1.19641 5.175527,-1.70107 1.511073,-0.79426 3.203924,-0.94404 4.793303,-1.44831 1.589908,-0.50698 3.257393,-0.60532 4.907454,-0.66789 1.894031,0.01 3.755406,-0.0599 5.630966,-0.31887 2.09001,-0.31808 4.202161,-0.37577 6.309622,-0.43401 2.30359,-0.0667 4.608308,-0.0306 6.912428,-0.0218 3.065475,-0.0384 6.072203,0.70782 9.106263,1.08621 3.10642,0.34252 6.23145,0.3964 9.35184,0.42921 2.11723,0.14249 4.18825,-0.11546 6.27685,-0.42313 2.00148,-0.11913 3.9695,-0.47934 5.95804,-0.71882 3.16628,-0.28704 6.34696,-0.27931 9.52217,-0.31188 2.92677,-0.21448 5.80819,-0.87135 8.69822,-1.38773 3.81627,-0.61157 7.68485,-0.68838 11.53652,-0.8037 3.20385,-0.0681 6.40811,-0.13994 9.61267,-0.15517 3.37659,0.0114 6.75283,0.0719 10.12934,0.10078 3.80886,-0.0924 7.61904,0.0615 11.42421,0.0523 3.488,-0.61059 9.92522,-5.06751 -7.03302,4.59256 -0.17101,0.0974 0.33455,-0.23724 0.4288,-0.41614 0.34656,-0.6578 0.39035,-1.69729 0.4747,-2.38099 0.25001,-4.49452 0.20249,-9.00261 0.20888,-13.50331 0.0599,-4.70524 -0.1981,-9.41436 -0.0529,-14.1174 0.15325,-2.95706 0.368,-5.90916 0.49891,-8.86758 0.16163,-3.22016 0.75805,-6.386134 1.11419,-9.583664 0.45168,-3.51881 0.8529,-7.04402 1.40648,-10.54723 0.48439,-3.47151 1.10077,-6.91129 1.88318,-10.32198 0.6337,-2.90719 1.18373,-5.83592 1.68911,-8.771 0.38975,-2.55072 0.43067,-5.14065 0.61825,-7.71261 0.45611,-5.93704 1.62585,-11.768938 2.49336,-17.644914 0.62055,-4.620793 1.61436,-9.171461 2.37782,-13.765392 0.50438,-3.203549 1.42706,-6.310234 2.27918,-9.425206 0.35716,-1.877768 1.23683,-3.53122 1.997,-5.24218 0,0 9.71026,-4.5762797 9.71026,-4.5762797 v 0 c -0.94918,1.595785 -1.79206,3.3035797 -2.26618,5.1244947 -0.94354,3.083691 -1.85308,6.197769 -2.46321,9.375063 -0.80925,4.631645 -1.91777,9.201486 -2.60607,13.857296 -0.87946,5.799238 -2.15451,11.554775 -2.35067,17.444498 -0.057,2.57797 0.0928,5.17806 -0.34214,7.73035 -0.53504,2.97782 -1.27501,5.91433 -1.79012,8.89741 -0.83112,3.38451 -1.47497,6.80207 -1.94015,10.26311 -0.59892,3.4719 -0.93816,6.98169 -1.40842,10.47414 -0.31865,3.17125 -0.8916,6.30229 -1.10252,9.48514 -0.0684,2.987944 -0.30862,5.960334 -0.5992,8.932924 -0.26141,4.71417 -0.11842,9.4424 -0.14434,14.16216 0.0487,4.47807 0.1527,8.95637 0.11546,13.43483 -0.0113,0.32628 -0.0536,3.3889 -0.34109,3.58584 -5.20864,3.56787 -6.74086,5.94549 -11.32841,5.95396 -3.72472,-0.21559 -7.45358,-0.22841 -11.18391,-0.20139 -3.45665,0.0259 -6.91317,0.0809 -10.36991,0.0837 -3.1332,-0.0144 -6.26684,-0.0631 -9.39955,0.0311 -3.8793,0.1224 -7.77152,0.29674 -11.59646,1.04227 -2.88098,0.53212 -5.77447,1.12375 -8.7073,1.17931 -3.20331,0.0493 -6.41625,0.10722 -9.59895,0.52699 -1.99649,0.29442 -3.99251,0.5482 -5.99866,0.75717 -2.09037,0.27314 -4.1766,0.34796 -6.28262,0.22468 -3.12247,-0.0777 -6.244918,-0.23173 -9.352875,-0.56824 -3.024387,-0.39452 -6.033561,-1.07592 -9.097854,-0.92974 -2.31339,0.01 -4.626735,0.0307 -6.93963,0.0835 -2.100617,0.0755 -4.197773,0.22541 -6.28016,0.53638 -1.890426,0.22443 -3.787979,0.16642 -5.686033,0.27345 -1.629903,0.13512 -3.245701,0.35351 -4.8132,0.86707 -1.614881,0.37373 -3.187637,0.86407 -4.748955,1.43806 -1.753071,0.52318 -3.492146,1.07433 -5.218993,1.68417 -1.480482,0.32374 -2.964973,0.54801 -4.474508,0.65174 -1.467548,0.26337 -2.822764,0.76596 -4.102303,1.58061 -2.439379,0.96027 -5.066248,1.1902 -7.578185,1.87617 -3.646222,0.92689 -7.235414,2.06182 -10.730236,3.50566 -1.570583,0.71745 -3.084892,1.49858 -4.591429,2.3555 -0.474823,0.27008 -1.882234,1.11254 -1.417082,0.82445 11.632569,-7.20436 9.1494,-5.63943 6.043645,-3.66944 -5.554609,3.62538 -11.154971,7.20042 -17.1232521,10.02017 -2.1915677,1.03024 -4.3588393,2.12405 -6.6123502,2.99778 0,0 8.3849633,-6.93329 8.3849633,-6.93329 z"
           id="path5313"
           style="fill:#ff0000;fill-opacity:1;stroke:#ff0000;stroke-width:0.36509666"
           inkscape:connector-curvature="0" />
        <path
           d="m 37.192041,34.43928 c 2.25925,2.649795 4.97472,4.796851 7.762367,6.79032 2.114929,1.416211 4.283799,2.800021 6.661857,3.674926 0.727794,0.267763 2.891069,0.89653 3.63887,1.118324 3.710562,0.886583 7.515041,1.322846 11.30047,1.698659 4.927305,0.406615 9.87373,0.444539 14.813382,0.49139 5.428893,0.180898 10.764165,-0.850463 16.135996,-1.418017 3.209207,-0.187131 6.411787,-0.377815 9.617627,-0.629955 3.66262,-0.181979 7.29178,-0.866302 10.87424,-1.660885 4.1444,-1.060678 8.36395,-1.737238 12.57549,-2.421668 2.7846,-0.299525 5.50868,-0.78072 8.23283,-1.433465 3.23855,-1.025026 6.44089,-2.208161 9.68275,-3.247762 0.67253,-0.228999 1.34235,-0.467013 2.01759,-0.686999 2.00861,-0.654393 1.88489,-0.494809 3.76973,-1.347462 1.72356,-0.779685 3.37349,-1.747071 5.02664,-2.67523 2.35521,-1.457472 5.07289,-1.943807 7.54748,-3.076991 0.27656,-0.163222 1.10479,-0.655569 0.82968,-0.489657 -2.67726,1.614561 -5.35171,3.234319 -8.03616,4.835623 -0.37552,0.224 0.7398,-0.468223 1.10903,-0.70351 0.82826,-0.527802 1.6363,-1.055209 2.47494,-1.565493 3.40274,-2.070408 6.81148,-4.129908 10.21723,-6.194861 2.22761,-1.337722 4.59334,-2.33288 6.94886,-3.38038 1.91904,-1.074697 4.11561,-1.335663 6.01636,-2.418619 -14.89664,9.091317 -8.35826,5.463567 -5.52363,2.760363 1.48443,-1.415602 2.8555,-2.966909 4.24074,-4.487195 1.8164,-2.109034 3.74806,-4.097062 5.94157,-5.767247 5.18914,0.918645 7.16457,-4.9412087 11.09633,-6.6786457 0.6063,-0.267912 1.20755,-0.352672 1.79716,-0.664102 7.40795,-4.21271998 -30.40198,18.3221927 1.40181,-0.837566 2.90143,-1.747929 -5.77844,3.54067 -8.68688,5.275669 -0.14039,0.08374 0.33093,-0.278236 0.79165,-0.635003 0.4919,-0.490831 0.24332,-0.256489 0.74463,-0.704333 0,0 9.83595,-4.310003 9.83595,-4.310003 v 0 c -0.43187,0.573179 -0.18819,0.324526 -0.72533,0.752137 -2.57481,3.238596 -7.0762,4.067696 -10.23873,6.6677277 -2.62471,2.157865 11.65486,-6.7814797 8.65581,-5.2554837 -20.12946,10.2424087 -5.66683,4.064416 -10.13496,5.9643627 -3.75436,1.257687 -10.05029,6.502933 5.26971,-3.6062157 -2.37108,1.508366 -4.3966,3.5214787 -6.27748,5.6483777 -1.75993,1.932327 -3.46306,3.984474 -5.35442,5.777583 -3.19515,3.02915 -8.05295,4.096651 -11.06586,6.984126 -1.98551,0.829038 -4.08719,1.336862 -6.00354,2.362336 -2.31147,1.047071 -4.63131,2.067871 -6.80355,3.419831 2.5207,-1.533918 5.03985,-3.070621 7.56205,-4.601745 0.4214,-0.255809 -0.84167,0.51366 -1.25953,0.775777 -0.75427,0.473123 -1.48195,0.992507 -2.24118,1.456742 -3.31985,2.029934 -6.6385,4.062454 -9.98157,6.049791 -0.27837,0.165469 -0.58545,0.27061 -0.87817,0.405916 -2.47004,0.91509 -5.01766,1.622662 -7.30208,3.024912 -3.48751,1.898395 -7.06273,3.475238 -10.87658,4.513032 -3.29998,1.113213 -6.5575,2.39043 -9.90796,3.319177 -2.68756,0.636809 -5.40958,0.897788 -8.13953,1.265173 -4.19122,0.686711 -8.39153,1.334817 -12.50842,2.434856 -3.6553,0.772408 -7.34316,1.445998 -11.072849,1.643238 -3.154662,0.24832 -6.309594,0.37347 -9.468045,0.54597 -5.340921,0.54786 -10.66473,1.32313 -16.049158,1.21185 -5.019129,-0.0229 -10.046536,-0.009 -15.053462,-0.42824 -3.833709,-0.40108 -7.693524,-0.82996 -11.430379,-1.84789 -3.728631,-1.168069 -7.305828,-2.647544 -10.476941,-5.082885 -2.836077,-2.053022 -5.493779,-4.31973 -8.09172,-6.694455 0,0 8.997285,-5.916226 8.997285,-5.916226 z"
           id="path5315"
           style="fill:#ff0000;fill-opacity:1;stroke:#ff0000;stroke-width:0.36509666"
           inkscape:connector-curvature="0" />
      </g>
    </g>
  </g>
</svg>
